<svg id="Layer_1" data-name="Layer 1" xmlns="http://www.w3.org/2000/svg" viewBox="0 0 1166.43 217.29"><defs><style>.cls-1{fill:#999;}.cls-2{fill:aqua;}</style></defs><title>LOGO COINSVIEW</title><path class="cls-1" d="M185.66,46.13,101.93,208A108,108,0,0,1,185.66,46.13" transform="translate(-3.57 -45.4)"/><path class="cls-1" d="M243.22,57.12,144.09,248.78a107.67,107.67,0,0,1-13.23-8.42L228.73,51.13a106.38,106.38,0,0,1,14.49,6" transform="translate(-3.57 -45.4)"/><path class="cls-1" d="M302.72,153.65A107.78,107.78,0,0,1,160.56,255.93l98-189.44a107.85,107.85,0,0,1,44.18,87.16" transform="translate(-3.57 -45.4)"/><path class="cls-2" d="M370.05,141.24c-4.38-.18-8.82-2.8-11.5-8a3.36,3.36,0,0,0-3.5-2.25c-18.71.08-37.43,0-56.14.06q-11,0-22,.21c-3.19.06-5-1.29-6.13-4.32C265,111,255.05,98.23,241.38,88.2c-8.54-6.27-18-10-28.18-12.5a75.36,75.36,0,0,0-52,5.28c-19.41,9.3-33.33,24-41.2,44.26-2.26,5.82-2.41,6-8.76,6q-37.77-.09-75.53-.24c-2.08,0-3.23.45-4.24,2.49a14.57,14.57,0,0,1-16.63,7.45A15.08,15.08,0,0,1,3.57,126.45a14.91,14.91,0,0,1,11.66-14.37,14.46,14.46,0,0,1,16.25,7.62c1,2,2.11,2.55,4.23,2.54,19-.08,38,0,57-.07,5.48,0,11-.3,16.43-.31,1.79,0,2.47-.73,3.15-2.3,9.86-22.83,26.14-39.33,49.25-48.58a86.13,86.13,0,0,1,49.56-4.91c31.4,6.27,53.71,24.15,66.67,53.49a3.21,3.21,0,0,0,3.45,2.3q36.72.11,73.45.38c2.08,0,3-.68,3.94-2.53a14.73,14.73,0,0,1,27.6,9.34c-1.16,7.14-7.31,12.24-16.18,12.19m1.56-8.8a6,6,0,0,0,6.12-5.79,6,6,0,1,0-12.09-.14,5.93,5.93,0,0,0,6,5.93m-353.09,0a6,6,0,0,0,6-5.94,6,6,0,1,0-12.09.16,5.94,5.94,0,0,0,6.12,5.78" transform="translate(-3.57 -45.4)"/><path class="cls-2" d="M48.44,166.83c4.67.09,9.26,2.66,12,8a3.52,3.52,0,0,0,3.78,2.27c13.13-.15,26.25-.2,39.38-.24,3.52,0,7,.12,10.57.12,2.85,0,4.15,1.71,5,4.13a75.26,75.26,0,0,0,16.79,27.64c18.16,18.81,40.35,27.88,66.44,25.13,33.35-3.51,56-21.66,68.41-52.74,1.47-3.67,2.34-4.33,6.32-4.3,16.26.08,32.52.11,48.79.26a3.72,3.72,0,0,0,3.95-2.47,14.58,14.58,0,0,1,16.62-7.5,15,15,0,0,1,11.21,14.44A14.8,14.8,0,0,1,346.06,196a14.44,14.44,0,0,1-16.26-7.6,3.91,3.91,0,0,0-4.23-2.55q-22.17.32-44.36.37c-1.83,0-2.65.61-3.43,2.34-14,31.2-37.93,49.57-71.89,54.43a81.39,81.39,0,0,1-40.49-4.34c-24.45-9.16-42.27-25.58-52.62-49.72-1-2.38-2.17-3.12-4.71-3.09-14.39.13-28.78.1-43.16,0-2.25,0-3.57.41-4.72,2.73a14.51,14.51,0,0,1-17.77,7c-6.93-2.4-10.89-9.3-9.65-16.82,1.1-6.73,7.28-11.87,15.67-11.93m-1.15,8.82a5.94,5.94,0,0,0-6,5.87,6,6,0,0,0,6.16,6,6.14,6.14,0,0,0,5.89-6.06,5.93,5.93,0,0,0-6-5.86m301.55,6.06a6,6,0,0,0-12-.4,6.12,6.12,0,0,0,6,6.26,6,6,0,0,0,6.06-5.86" transform="translate(-3.57 -45.4)"/><path class="cls-2" d="M347.92,98.86a15,15,0,0,1-11.11,14.51A14.48,14.48,0,0,1,320.18,106c-1.08-2.18-2.34-2.59-4.48-2.56-10.29.14-20.57.08-30.86.26-2.87,0-4.43-1.34-5.86-3.56-10.64-16.44-24.76-29.09-42.62-37C216,54,194.58,51.15,172.73,56.61c-25.78,6.45-46.58,20.48-61.2,43-2,3.14-4.29,4.14-8,4-10.28-.3-20.57-.21-30.85-.08-.84,0-1.94,1.26-2.46,2.2-2.91,5.3-8.6,8.57-14.27,8a14.8,14.8,0,0,1-4.68-28.43A14.43,14.43,0,0,1,69.9,91.93c1.11,2.16,2.33,2.79,4.65,2.75,8.82-.14,17.64-.12,26.46,0a4.8,4.8,0,0,0,4.53-2.35c17.78-25.27,41.9-41.24,72.41-45.58,43.81-6.23,79.3,9.16,105.9,44.61,1.75,2.33,3.39,3.42,6.39,3.34,8.72-.22,17.44-.13,26.16,0a3.23,3.23,0,0,0,3.48-2.2,14.46,14.46,0,0,1,16.66-7.85,14.78,14.78,0,0,1,11.38,14.24m-285.07,0A5.83,5.83,0,0,0,57,92.93,6,6,0,1,0,57.19,105a5.85,5.85,0,0,0,5.66-6.16m264.42,0A5.81,5.81,0,0,0,333,105a6,6,0,1,0,.17-12.09,5.82,5.82,0,0,0-5.86,6" transform="translate(-3.57 -45.4)"/><path class="cls-2" d="M165,173.64c8,7.45,16.61,12.43,28,13.06v-11c0-6-.18-12,.07-17.92.13-2.93-.64-4.28-3.6-5.09A55.9,55.9,0,0,1,178,148.34c-8.48-4.47-12.68-11.68-12.35-21.32.32-9,5-15.39,12.9-19.13,4.35-2,9.18-3.08,14.33-4.75V87.71h8.23v15.55c9.63,1.35,18.38,3.86,26.59,9.13l-4.54,10c-6.76-4.22-13.62-7.1-22.14-7.52v11.75c0,5.29.1,10.59-.05,15.87-.06,2,.77,2.66,2.45,3.28,4.94,1.8,10,3.38,14.64,5.81,8.28,4.37,12.13,11.58,11.91,21S225.43,188.8,217.37,193c-4.78,2.47-10.18,3.75-16,5.8v16.52h-8.6v-16.9c-3.92-.95-7.55-1.67-11.07-2.72a59.17,59.17,0,0,1-19.67-10.2c-1.71-1.34-2-2.5-.83-4.38,1.36-2.23,2.4-4.66,3.79-7.44m36.38,12.68a19.4,19.4,0,0,0,11-3.51,12.43,12.43,0,0,0,3.5-17.11c-3.4-5.28-9.12-6.88-14.49-9.12Zm-8.66-71.42a59.63,59.63,0,0,0-6.94,1.44c-9.28,3.17-11.57,13.07-4.27,19.6,3.1,2.77,7.13,4.5,11.21,7Z" transform="translate(-3.57 -45.4)"/><path class="cls-2" d="M317.49,209.09a14.59,14.59,0,0,1-11.17,14.37,14.77,14.77,0,0,1-16.79-7.68c-1.68-3.25-2.59-3.28-4.74-.22-17.85,25.37-42,41.46-72.65,45.79-44.32,6.26-80-9.52-106.65-45.56-.23-.31-.41-.66-.65-1-1.56-2.08-2.76-1.94-4,.45-4.4,8.66-14.44,11.32-22.1,5.87a14.75,14.75,0,0,1,7.1-26.72A14.25,14.25,0,0,1,100.26,202c1,2.08,2.14,3,4.42,2.67,2.87-.41,4.71.95,6.25,3.37A95.51,95.51,0,0,0,153.64,245c46.79,20.59,98.58,4.18,125.16-36.74,1.85-2.84,4-4.27,7.24-3.68,1.89.33,2.71-.34,3.54-2a14.7,14.7,0,0,1,27.91,6.58m-236,.11a5.93,5.93,0,0,0,5.94,6,6,6,0,1,0-.16-12.07,6,6,0,0,0-5.78,6.12M308.67,209a6,6,0,0,0-11.9.1,6.1,6.1,0,0,0,6.17,6.06,5.94,5.94,0,0,0,5.73-6.16" transform="translate(-3.57 -45.4)"/><path class="cls-2" d="M271.62,158.76c-7.93,0-15.86,0-23.79,0-3.79,0-6.05-2.48-5.31-5.68.67-2.9,2.85-3.73,5.55-3.73H279.8c5.09,0,10.18,0,15.27,0a3.24,3.24,0,0,0,3.42-1.92,14.93,14.93,0,0,1,28.24,5.85,14.93,14.93,0,0,1-28.22,7.39,3.22,3.22,0,0,0-3.39-1.94c-7.83.06-15.66,0-23.5,0M312,160a5.93,5.93,0,0,0,5.94-5.94,6,6,0,0,0-6.26-5.93A5.94,5.94,0,0,0,312,160" transform="translate(-3.57 -45.4)"/><path class="cls-2" d="M131,158.76c-12,0-24.06,0-36.09,0a3.22,3.22,0,0,0-3.34,2,15,15,0,0,1-17.43,7.5,14.78,14.78,0,0,1,.68-28.63,15.09,15.09,0,0,1,16.67,7.59c1,1.81,2.07,2.14,3.86,2.15,15.26.06,30.52.19,45.78.3.68,0,1.37,0,2,.05,2.76.27,4.25,1.77,4.29,4.26s-1.49,4.3-4.43,4.4c-4,.13-8,0-12,0v.36m-52.8-10.65A5.94,5.94,0,1,0,78.39,160a5.94,5.94,0,0,0-.17-11.87" transform="translate(-3.57 -45.4)"/><path class="cls-2" d="M420.26,185.59a34.26,34.26,0,0,1-13.77-12.84,37.57,37.57,0,0,1,0-37.42,34.26,34.26,0,0,1,13.77-12.84A42,42,0,0,1,440,117.9a43.39,43.39,0,0,1,18,3.55,33.43,33.43,0,0,1,13,10.27l-14.71,13.14q-6.42-8.1-15.11-8.1-7.31,0-11.75,4.69T425,154q0,7.91,4.45,12.59t11.75,4.69q8.69,0,15.11-8.09L471,176.36a33.34,33.34,0,0,1-13,10.27,43.39,43.39,0,0,1-18,3.56,42,42,0,0,1-19.75-4.6" transform="translate(-3.57 -45.4)"/><path class="cls-2" d="M492.45,185.54a35.44,35.44,0,0,1,0-63,45.64,45.64,0,0,1,40.1,0,35.43,35.43,0,0,1,0,63,45.55,45.55,0,0,1-40.1,0m27.9-16.34a15.12,15.12,0,0,0,5.58-6,21.19,21.19,0,0,0,0-18.27,15.22,15.22,0,0,0-5.58-6,15.59,15.59,0,0,0-15.7,0,15.22,15.22,0,0,0-5.58,6,21.1,21.1,0,0,0,0,18.27,15.12,15.12,0,0,0,5.58,6,15.59,15.59,0,0,0,15.7,0" transform="translate(-3.57 -45.4)"/><rect class="cls-2" x="556.43" y="74.08" width="23.31" height="69.13"/><polygon class="cls-2" points="659.14 74.08 659.14 143.21 639.98 143.21 613.71 111.81 613.71 143.21 591 143.21 591 74.08 610.15 74.08 636.42 105.49 636.42 74.08 659.14 74.08"/><path class="cls-2" d="M683,188.26a45.09,45.09,0,0,1-13.39-5.18l7.51-17a47.72,47.72,0,0,0,11.06,4.59,43.31,43.31,0,0,0,11.75,1.73q4.85,0,6.91-.94a3,3,0,0,0,2.08-2.81c0-1.45-.91-2.54-2.72-3.26a58.3,58.3,0,0,0-8.93-2.37,100.49,100.49,0,0,1-13.34-3.61,22.59,22.59,0,0,1-9.28-6.32q-3.95-4.38-3.95-11.9a20.56,20.56,0,0,1,3.65-11.85A24.2,24.2,0,0,1,685.27,121q7.26-3.06,17.62-3.06a64,64,0,0,1,14,1.53A43.82,43.82,0,0,1,729,123.92l-7,16.89q-10.17-5.13-19.25-5.14t-9,4.35c0,1.38.89,2.42,2.67,3.11a56.19,56.19,0,0,0,8.79,2.22,90,90,0,0,1,13.33,3.41,23.15,23.15,0,0,1,9.43,6.27q4,4.35,4,11.85a20.25,20.25,0,0,1-3.66,11.8,24.53,24.53,0,0,1-10.91,8.39q-7.26,3.12-17.62,3.12A72.17,72.17,0,0,1,683,188.26" transform="translate(-3.57 -45.4)"/><polygon class="cls-1" points="809.14 74.08 779.91 143.21 757 143.21 727.77 74.08 752.85 74.08 769.35 114.47 786.23 74.08 809.14 74.08"/><rect class="cls-1" x="811.42" y="74.08" width="23.31" height="69.13"/><polygon class="cls-1" points="903.45 125.63 903.45 143.21 845.98 143.21 845.98 74.08 902.17 74.08 902.17 91.66 868.89 91.66 868.89 99.76 898.12 99.76 898.12 116.55 868.89 116.55 868.89 125.63 903.45 125.63"/><polygon class="cls-1" points="1023.93 74.08 1001.81 143.21 976.83 143.21 965.67 106.28 953.91 143.21 928.93 143.21 906.81 74.08 930.81 74.08 942.86 113.39 955.6 74.08 977.03 74.08 989.07 113.88 1001.81 74.08 1023.93 74.08"/><path class="cls-1" d="M1030.21,186a12.35,12.35,0,0,1-3.7-9.23,12,12,0,0,1,3.7-9.14,14.17,14.17,0,0,1,18.67,0,12,12,0,0,1,3.7,9.14,12.31,12.31,0,0,1-3.7,9.23,13.9,13.9,0,0,1-18.67,0" transform="translate(-3.57 -45.4)"/><rect class="cls-1" x="1056.62" y="74.08" width="23.31" height="69.13"/><path class="cls-1" d="M1110.94,185.54a35.44,35.44,0,0,1,0-63,45.64,45.64,0,0,1,40.1,0,35.43,35.43,0,0,1,0,63,45.55,45.55,0,0,1-40.1,0m27.9-16.34a15.12,15.12,0,0,0,5.58-6,21.1,21.1,0,0,0,0-18.27,15.22,15.22,0,0,0-5.58-6,15.59,15.59,0,0,0-15.7,0,15.22,15.22,0,0,0-5.58,6,21.19,21.19,0,0,0,0,18.27,15.12,15.12,0,0,0,5.58,6,15.59,15.59,0,0,0,15.7,0" transform="translate(-3.57 -45.4)"/></svg>